<svg xmlns="http://www.w3.org/2000/svg" width="390" height="661" viewBox="0 0 390 661">
<path fill-rule="evenodd" clip-rule="evenodd" d="M17.9696 99.9392C-4.87616 77.0935 -4.87611 40.0534 17.9696 17.2078C40.8152 -5.63792 77.8553 -5.63796 100.701 17.2078L372.23 288.737C372.286 288.793 372.342 288.849 372.398 288.906C372.452 288.959 372.506 289.012 372.559 289.066C395.405 311.912 395.405 348.952 372.559 371.798L101.03 643.327C78.1847 666.172 41.1445 666.172 18.2989 643.327C-4.54681 620.481 -4.54681 583.441 18.2988 560.595L231.845 347.049C231.858 347.036 231.871 347.023 231.883 347.011C241.022 337.83 241.01 322.979 231.845 313.815C231.842 313.811 231.838 313.808 231.835 313.805L17.9696 99.9392Z" fill="#D9D9D9" style="fill: white;"/>
</svg>