<svg width="7" height="7" viewBox="0 0 7 7" fill="none" xmlns="http://www.w3.org/2000/svg">
<path fill-rule="evenodd" clip-rule="evenodd" d="M3 2H1C0.447715 2 0 2.44772 0 3V6C0 6.55228 0.447715 7 1 7H4C4.55228 7 5 6.55228 5 6V4H4.2V6C4.2 6.11046 4.11046 6.2 4 6.2H1C0.889543 6.2 0.8 6.11046 0.8 6V3C0.8 2.88954 0.889543 2.8 1 2.8H3V2Z" fill="white"/>
<path d="M5.07919 2.51535C4.96598 2.79811 4.9659 3.06686 5.06762 3.3386C5.04487 3.34072 5.02836 3.34367 5.01172 3.34361C4.72875 3.34515 4.44571 3.3474 4.16284 3.3468C4.11066 3.34671 4.07282 3.36358 4.03516 3.40153C3.71216 3.72681 3.38302 4.04615 3.0652 4.37639C2.89731 4.55083 2.62172 4.55327 2.46431 4.39712C2.29342 4.22754 2.29835 3.969 2.47924 3.78742C2.80421 3.46121 3.12994 3.13574 3.45643 2.81103C3.49247 2.77499 3.50911 2.74017 3.50912 2.68955C3.51021 2.03398 3.51249 1.37839 3.51595 0.722798C3.51613 0.677029 3.51321 0.631283 3.51505 0.585499C3.52137 0.42365 3.59638 0.29746 3.74205 0.221031C3.88773 0.144602 4.03043 0.156856 4.16148 0.242376C4.28637 0.323905 4.34724 0.44507 4.34717 0.595759C4.34695 1.058 4.34357 1.52039 4.34186 1.9827C4.34124 2.14011 4.34391 2.29736 4.34098 2.45485C4.34004 2.50251 4.35607 2.51578 4.40141 2.51528C4.60074 2.51299 4.79995 2.51347 4.99919 2.51313C5.02261 2.51312 5.04601 2.51441 5.07919 2.51535Z" fill="white"/>
<path d="M6.51501 3.41783C6.18722 3.74067 5.64165 3.65859 5.43094 3.25328C5.27995 2.96283 5.35541 2.61318 5.61472 2.40061C5.86038 2.19917 6.22904 2.20603 6.4749 2.41153C6.74031 2.6334 6.79832 3.02613 6.59659 3.31869C6.57243 3.35375 6.54237 3.38489 6.51501 3.41783Z" fill="white"/>
</svg>
