<svg width="15" height="40" viewBox="0 0 15 40" xmlns="http://www.w3.org/2000/svg">
<path style="fill: #09435e" d="M2.14286 40C1.57143 40 1.07143 39.7 0.642857 39.1C0.214285 38.5 0 37.8 0 37V16.6C0 15.9333 0.130953 15.4 0.392858 15C0.654763 14.6 1.02381 14.25 1.5 13.95L2.85714 13.1C3.42857 12.7333 3.84524 12.2833 4.10714 11.75C4.36905 11.2167 4.5 10.5667 4.5 9.8V1.75C4.5 1.21667 4.6131 0.791667 4.83929 0.475C5.06548 0.158333 5.36905 0 5.75 0H9.10714C9.4881 0 9.79167 0.158333 10.0179 0.475C10.244 0.791667 10.3571 1.21667 10.3571 1.75V9.8C10.3571 10.5667 10.5179 11.2167 10.8393 11.75C11.1607 12.2833 11.6071 12.7333 12.1786 13.1L13.5357 13.95C13.9881 14.2167 14.3452 14.5583 14.6071 14.975C14.869 15.3917 15 15.9333 15 16.6V37C15 37.8 14.7857 38.5 14.3571 39.1C13.9286 39.7 13.4286 40 12.8571 40H2.14286ZM6.64286 5.2H8.21429V3H6.64286V5.2ZM2.14286 20.75H12.8571V16.6L11.3571 15.8C10.4048 15.3 9.64286 14.4833 9.07143 13.35C8.5 12.2167 8.21429 10.9667 8.21429 9.6V8.2H6.64286V9.6C6.64286 10.9667 6.375 12.1667 5.83929 13.2C5.30357 14.2333 4.58333 15.0333 3.67857 15.6L2.14286 16.6V20.75ZM2.14286 37H12.8571V31.85H2.14286V37ZM2.14286 28.85H12.8571V23.75H2.14286V28.85Z" fill="black"/>
</svg>
