<svg xmlns="http://www.w3.org/2000/svg" width="24" height="41" viewBox="0 0 24 41" fill="none">
<path fill-rule="evenodd" clip-rule="evenodd" d="M6.0732 3.5C5.42692 3.5 4.80575 3.75028 4.33999 4.19833L4.2668 4.26875C3.77686 4.74006 3.5 5.39058 3.5 6.07042V15.6896C3.5 16.3673 3.7792 17.0222 4.27069 17.495C5.34699 18.5304 5.96154 19.9646 5.96154 21.4624V35C5.96154 36.3807 7.08083 37.5 8.46154 37.5H15.5385C16.9192 37.5 18.0385 36.3807 18.0385 35V21.4624C18.0385 19.9646 18.653 18.5304 19.7293 17.495C20.2208 17.0222 20.5 16.3673 20.5 15.6896V6.07042C20.5 5.39058 20.2231 4.74006 19.7332 4.26875L19.66 4.19833C19.1943 3.75028 18.5731 3.5 17.9268 3.5H6.0732ZM2.26015 2.03633C3.28481 1.05061 4.65138 0.5 6.0732 0.5H17.9268C19.3486 0.5 20.7152 1.05061 21.7399 2.03633L21.813 2.10675C22.8909 3.14364 23.5 4.57478 23.5 6.07042V15.6896C23.5 17.1874 22.8855 18.6216 21.8092 19.657C21.3177 20.1298 21.0385 20.7847 21.0385 21.4624V35C21.0385 38.0376 18.576 40.5 15.5385 40.5H8.46154C5.42397 40.5 2.96154 38.0376 2.96154 35V21.4624C2.96154 20.7847 2.68233 20.1298 2.19085 19.657C1.11455 18.6216 0.5 17.1874 0.5 15.6896V6.07042C0.5 4.57478 1.1091 3.14364 2.18695 2.10675L2.26015 2.03633Z" fill="#D9D9D9" style="&#10;    fill: #00435e;&#10;"/>
</svg>