<svg width="1635" height="418" viewBox="0 0 1635 418" fill="none" xmlns="http://www.w3.org/2000/svg">
<path d="M700.388 94.5792H659.482C658.734 89.2868 657.209 84.5859 654.905 80.4766C652.601 76.3049 649.644 72.7559 646.033 69.8295C642.421 66.9032 638.25 64.6617 633.518 63.1051C628.848 61.5485 623.774 60.7703 618.294 60.7703C608.395 60.7703 599.771 63.2296 592.424 68.1484C585.077 73.005 579.38 80.103 575.333 89.4425C571.286 98.7197 569.262 109.989 569.262 123.251C569.262 136.887 571.286 148.344 575.333 157.621C579.442 166.898 585.17 173.903 592.517 178.635C599.864 183.367 608.363 185.733 618.014 185.733C623.431 185.733 628.443 185.017 633.051 183.585C637.721 182.152 641.861 180.067 645.472 177.327C649.084 174.525 652.072 171.132 654.438 167.147C656.866 163.162 658.548 158.617 659.482 153.511L700.388 153.698C699.33 162.477 696.684 170.945 692.45 179.102C688.278 187.196 682.643 194.449 675.545 200.863C668.51 207.213 660.104 212.257 650.329 215.993C640.616 219.666 629.626 221.503 617.36 221.503C600.3 221.503 585.046 217.643 571.597 209.922C558.21 202.201 547.626 191.025 539.843 176.393C532.122 161.761 528.262 144.047 528.262 123.251C528.262 102.393 532.184 84.6482 540.029 70.0163C547.875 55.3845 558.522 44.2393 571.971 36.581C585.419 28.8603 600.549 25 617.36 25C628.443 25 638.717 26.5566 648.181 29.6697C657.707 32.7829 666.144 37.3281 673.491 43.3054C680.838 49.2204 686.815 56.4741 691.423 65.0664C696.092 73.6587 699.081 83.4963 700.388 94.5792Z" fill="#0ABAB5"/>
<path d="M729.388 218.888V27.6151H858.273V60.957H769.828V106.534H851.642V139.876H769.828V185.546H858.646V218.888H729.388Z" fill="#0ABAB5"/>
<path d="M890.424 218.888V27.6151H965.887C980.332 27.6151 992.66 30.199 1002.87 35.3668C1013.14 40.4724 1020.96 47.7261 1026.31 57.1278C1031.73 66.4673 1034.44 77.4568 1034.44 90.0962C1034.44 102.798 1031.7 113.725 1026.22 122.878C1020.74 131.968 1012.8 138.942 1002.4 143.798C992.069 148.655 979.554 151.083 964.859 151.083H914.333V118.582H958.322C966.042 118.582 972.456 117.523 977.561 115.406C982.667 113.289 986.465 110.114 988.955 105.88C991.508 101.646 992.785 96.3848 992.785 90.0962C992.785 83.7454 991.508 78.3907 988.955 74.0323C986.465 69.6739 982.636 66.3739 977.468 64.1325C972.362 61.8287 965.918 60.6769 958.135 60.6769H930.864V218.888H890.424ZM993.719 131.844L1041.26 218.888H996.614L950.103 131.844H993.719Z" fill="#0ABAB5"/>
<path d="M1055.73 60.957V27.6151H1212.82V60.957H1154.26V218.888H1114.29V60.957H1055.73Z" fill="#0ABAB5"/>
<path d="M1279.13 27.6151V218.888H1238.69V27.6151H1279.13Z" fill="#0ABAB5"/>
<path d="M1312.41 218.888V27.6151H1439.05V60.957H1352.85V106.534H1430.64V139.876H1352.85V218.888H1312.41Z" fill="#0ABAB5"/>
<path d="M1455.04 27.6151H1500.34L1543.95 109.989H1545.82L1589.44 27.6151H1634.73L1564.97 151.27V218.888H1524.81V151.27L1455.04 27.6151Z" fill="#0ABAB5"/>
<path d="M528 390.937V294.21H566.729C573.845 294.21 579.78 295.265 584.534 297.375C589.289 299.484 592.863 302.412 595.256 306.159C597.649 309.875 598.845 314.157 598.845 319.006C598.845 322.784 598.089 326.106 596.578 328.972C595.067 331.805 592.989 334.135 590.344 335.962C587.73 337.756 584.739 339.032 581.37 339.787V340.732C585.054 340.889 588.502 341.928 591.713 343.849C594.957 345.77 597.586 348.462 599.601 351.925C601.616 355.357 602.624 359.451 602.624 364.205C602.624 369.338 601.348 373.919 598.798 377.949C596.279 381.948 592.548 385.112 587.604 387.442C582.661 389.772 576.568 390.937 569.326 390.937H528ZM548.451 374.218H565.123C570.822 374.218 574.978 373.132 577.592 370.959C580.205 368.755 581.512 365.827 581.512 362.174C581.512 359.498 580.866 357.136 579.575 355.09C578.284 353.043 576.442 351.437 574.049 350.272C571.688 349.107 568.87 348.525 565.595 348.525H548.451V374.218ZM548.451 334.686H563.612C566.414 334.686 568.901 334.198 571.074 333.222C573.278 332.215 575.01 330.798 576.269 328.972C577.56 327.145 578.206 324.957 578.206 322.407C578.206 318.911 576.962 316.093 574.474 313.952C572.018 311.811 568.523 310.741 563.989 310.741H548.451V334.686Z" fill="black"/>
<path d="M633.463 294.21H655.37L677.426 335.867H678.371L700.427 294.21H723.334L688.053 356.743V390.937H667.744V356.743L633.463 294.21Z" fill="black"/>
<path d="M902.218 325.476C901.557 323.178 900.628 321.147 899.431 319.384C898.235 317.589 896.771 316.078 895.039 314.85C893.338 313.59 891.386 312.63 889.182 311.969C887.01 311.307 884.601 310.977 881.956 310.977C877.013 310.977 872.667 312.205 868.921 314.661C865.205 317.117 862.308 320.69 860.23 325.382C858.152 330.042 857.113 335.741 857.113 342.479C857.113 349.217 858.136 354.948 860.183 359.671C862.23 364.394 865.126 367.999 868.873 370.487C872.62 372.943 877.044 374.171 882.145 374.171C886.773 374.171 890.725 373.352 894 371.715C897.306 370.046 899.825 367.7 901.557 364.677C903.32 361.655 904.201 358.081 904.201 353.956L908.358 354.57H883.42V339.173H923.896V351.359C923.896 359.86 922.102 367.165 918.512 373.273C914.923 379.35 909.979 384.042 903.682 387.348C897.385 390.623 890.174 392.26 882.05 392.26C872.982 392.26 865.016 390.26 858.152 386.262C851.288 382.231 845.935 376.516 842.094 369.117C838.284 361.686 836.379 352.87 836.379 342.668C836.379 334.828 837.512 327.838 839.78 321.698C842.078 315.527 845.29 310.3 849.414 306.018C853.539 301.735 858.341 298.477 863.82 296.241C869.298 294.005 875.234 292.888 881.625 292.888C887.104 292.888 892.205 293.691 896.928 295.296C901.651 296.871 905.839 299.106 909.491 302.003C913.175 304.9 916.182 308.348 918.512 312.347C920.842 316.314 922.338 320.69 922.999 325.476H902.218Z" fill="black"/>
<path d="M972.458 390.937V294.21H1037.64V311.071H992.909V334.12H1034.28V350.981H992.909V374.076H1037.82V390.937H972.458Z" fill="black"/>
<path d="M1168 294.21V390.937H1150.34L1108.25 330.058H1107.55V390.937H1087.09V294.21H1105.04L1146.79 355.043H1147.64V294.21H1168Z" fill="black"/>
<path d="M1277.84 294.21H1298.29V357.026C1298.29 364.079 1296.61 370.251 1293.24 375.54C1289.9 380.83 1285.23 384.955 1279.21 387.915C1273.2 390.843 1266.19 392.307 1258.19 392.307C1250.17 392.307 1243.14 390.843 1237.13 387.915C1231.12 384.955 1226.44 380.83 1223.1 375.54C1219.77 370.251 1218.1 364.079 1218.1 357.026V294.21H1238.55V355.279C1238.55 358.963 1239.35 362.237 1240.96 365.103C1242.59 367.968 1244.89 370.219 1247.85 371.856C1250.81 373.494 1254.26 374.312 1258.19 374.312C1262.16 374.312 1265.61 373.494 1268.54 371.856C1271.5 370.219 1273.78 367.968 1275.39 365.103C1277.02 362.237 1277.84 358.963 1277.84 355.279V294.21Z" fill="black"/>
<path d="M1368.77 294.21V390.937H1348.32V294.21H1368.77Z" fill="black"/>
<path d="M1499.7 294.21V390.937H1482.04L1439.95 330.058H1439.25V390.937H1418.8V294.21H1436.74L1478.49 355.043H1479.34V294.21H1499.7Z" fill="black"/>
<path d="M1544.13 294.21H1567.04L1589.09 335.867H1590.04L1612.09 294.21H1635L1599.72 356.743V390.937H1579.41V356.743L1544.13 294.21Z" fill="black"/>
<path fill-rule="evenodd" clip-rule="evenodd" d="M209.5 418C324.928 418 418.5 324.428 418.5 209C418.5 93.5725 324.928 0 209.5 0C94.0725 0 0.5 93.5725 0.5 209C0.5 324.428 94.0725 418 209.5 418ZM264.284 169.205C270.623 185.468 284.334 198.044 301.31 202.827L200.184 303.954C199.192 305.149 198.09 306.25 196.895 307.242L196.82 307.317L196.813 307.31C192.499 310.859 186.975 312.99 180.953 312.99C173.261 312.99 166.381 309.513 161.799 304.045L74.8406 217.572C69.2875 212.991 65.7477 206.056 65.7477 198.295C65.7477 184.5 76.9308 173.317 90.7258 173.317C98.358 173.317 105.191 176.74 109.772 182.135L181 252.488L264.284 169.205ZM353.251 148.849C353.251 169.119 336.819 185.551 316.548 185.551C296.278 185.551 279.846 169.119 279.846 148.849C279.846 128.579 296.278 112.146 316.548 112.146C336.819 112.146 353.251 128.579 353.251 148.849Z" fill="#0ABAB5"/>
</svg>
