<svg width="481" height="457" viewBox="0 0 481 457" fill="none" xmlns="http://www.w3.org/2000/svg">
<path d="M293.547 114.503C307.139 144.663 328.677 165.139 358.616 178.089C356.962 179.983 355.875 181.465 354.536 182.728C331.975 204.398 309.465 226.127 286.74 247.627C282.55 251.594 280.869 255.761 280.892 261.52C281.075 310.898 280.289 360.29 281.285 409.65C281.81 435.725 259.912 456.901 234.775 456.997C207.481 457.097 187.15 437.029 187.095 409.421C186.995 359.823 187.016 310.224 187.159 260.624C187.159 255.134 185.702 251.214 181.645 247.358C129.177 197.342 76.8035 147.235 24.5246 97.037C20.8696 93.5375 16.9679 90.2758 13.4453 86.6482C0.977175 73.8394 -3.12558 58.5145 2.42548 41.5978C7.97653 24.681 20.399 14.745 37.7603 11.2775C54.3084 7.97463 68.9011 12.5675 80.9763 24.0497C118.015 59.2739 154.812 94.7497 191.737 130.093C204.306 142.129 217.126 153.904 229.516 166.122C233.262 169.823 235.611 169.613 239.206 166.122C255.001 150.765 271.01 135.628 286.955 120.427C288.832 118.643 290.811 116.959 293.547 114.503Z" fill="#fff"/>
<path d="M480.999 73.8805C480.602 123.437 430.286 158.739 380.902 143.917C345.513 133.295 323.532 100.916 327.279 64.9738C330.824 30.9207 360.928 3.36347 397.112 0.289356C436.175 -3.02721 472.31 22.4669 479.592 60.1156C480.465 64.6262 480.552 69.2877 480.999 73.8805Z" fill="#fff"/>
</svg>
